<?xml version="1.0" encoding="UTF-8"?>
<!-- Created with Inkscape (http://www.inkscape.org/) -->
<svg width="138mm" height="86mm" version="1.1" viewBox="0 0 138 86" xml:space="preserve" xmlns="http://www.w3.org/2000/svg"><g transform="translate(-293.2 -450.17)"><path d="m412.58 484.86c0.021 1.3229 0.87675 2.3546 2.3555 2.3546 1.6132 0 2.2537-2.024 2.2537-3.6775v-2.6458" fill="none" stroke="#97cfba" stroke-width="1.182"/><g><rect x="416.54" y="452.18" width="1.3229" height="29.766" fill="#2bac7c" stroke-width=".12306"/><g transform="translate(-27.81 137.7)" fill="#53d4a4"><path d="m399.32 362.04v-6.8792c0-6.6146 19.844-6.6146 19.844 0v6.8792z" stroke-width=".1219"/><path d="m444.52 312.93c0.79752-0.71826 3.323 1.114 2.631 1.9161-14.792 17.147-40.492 47.519-40.492 47.519l-6.8405-4.982s30.149-31.347 44.701-44.453z" stroke-width=".23946"/><path d="m425.04 361.77c0 13.725-8.6234 23.495-20.9 29.309-3.6716 1.7389-6.9217-2.6758-11.114-1.6445-2.8752 0.70729-6.59 7.0479-9.6046 7.4223-3.4798 0.43218-4.9066-8.0488-8.449-8.0602-3.3766-0.0108-8.869 8.4682-12.185 8.0544-3.0407-0.37943-6.0833-7.3362-8.9812-8.0544-2.2822-0.5656-4.4553 5.1716-6.6002 4.3959-14.915-5.3942-25.99-15.869-25.99-31.423z" stroke-width=".26458"/></g><g stroke-width=".21911"><rect x="300.33" y="483.6" width="27.781" height="15.875" fill="#ff8633"/><path d="m328.09 483.6h27.781v15.875h-27.781z" fill="#ff5149"/><rect x="314.23" y="467.72" width="27.781" height="15.875" fill="#96cc37"/></g></g><circle cx="406.83" cy="494.61" r=".014816" fill="#ffd2b3" stroke="#000" stroke-width=".26458"/><g><rect x="304.3" y="487.56" width="2.6458" height="7.9375" fill="#ffb887"/><rect x="309.6" y="487.56" width="2.6458" height="7.9375" fill="#ffb887"/><rect x="317.53" y="471.69" width="2.6458" height="7.9375" fill="#c1dc97"/><rect x="322.82" y="471.69" width="2.6458" height="7.9375" fill="#c1dc97"/><rect x="403.22" y="482.21" width="27.781" height="15.875" fill="#ff8633" stroke-width=".21911"/><rect x="406.53" y="486.18" width="2.6458" height="7.9375" fill="#ffb887"/><rect x="411.82" y="486.18" width="2.6458" height="7.9375" fill="#ffb887"/><rect transform="rotate(90)" x="503.25" y="-319.65" width="2.6458" height="21.167" fill="#2bac7c"/><rect transform="scale(-1)" x="-388.97" y="-497.42" width="2.6458" height="5.2917" fill="#2bac7c"/><rect transform="rotate(90)" x="508.27" y="-323.35" width="2.6458" height="21.167" fill="#9ed3bb"/><rect transform="rotate(90)" x="508.27" y="-323.35" width="2.6458" height="21.167" fill="#2bac7c"/><rect x="332.08" y="487.56" width="2.6458" height="7.9375" fill="#ff8b83"/><rect x="337.38" y="487.56" width="2.6458" height="7.9375" fill="#ff8b83"/></g><path d="m300.98 528.83c4.9436-4.9436 4.9436-4.9436 9.8872 0l0.0146 0.0145c4.9291 4.9743 4.9291 4.9743 9.8436 0.0145l0.0145-0.0145c4.9581-4.9581 4.9581-4.9581 9.9018-0.0145h1e-5c4.9436 4.9436 4.9436 4.9436 9.8873 0 4.9436-4.9436 4.9436-4.9436 9.8872 0l0.0145 0.0145c4.9291 4.9743 4.9291 4.9743 9.8436 0.0145l0.0146-0.0145c4.9582-4.9582 4.9582-4.9582 9.9018-0.0145h2e-3c4.9456 4.9436 4.9456 4.9436 9.8892 0l-0.15769 0.1577c4.7859-4.7859 4.7859-4.7859 9.7295 0.15769" fill="none" stroke="#65b5f9" stroke-width="6.5915"/></g></svg>
